<svg width="14" height="13" viewBox="0 0 14 13" fill="none" xmlns="http://www.w3.org/2000/svg">
<path d="M3.5 2.5V0.5C3.5 0.367392 3.55268 0.240215 3.64645 0.146447C3.74021 0.0526784 3.86739 0 4 0C4.13261 0 4.25979 0.0526784 4.35355 0.146447C4.44732 0.240215 4.5 0.367392 4.5 0.5V2.5C4.5 2.63261 4.44732 2.75979 4.35355 2.85355C4.25979 2.94732 4.13261 3 4 3C3.86739 3 3.74021 2.94732 3.64645 2.85355C3.55268 2.75979 3.5 2.63261 3.5 2.5ZM6 3C6.13261 3 6.25979 2.94732 6.35355 2.85355C6.44732 2.75979 6.5 2.63261 6.5 2.5V0.5C6.5 0.367392 6.44732 0.240215 6.35355 0.146447C6.25979 0.0526784 6.13261 0 6 0C5.86739 0 5.74021 0.0526784 5.64645 0.146447C5.55268 0.240215 5.5 0.367392 5.5 0.5V2.5C5.5 2.63261 5.55268 2.75979 5.64645 2.85355C5.74021 2.94732 5.86739 3 6 3ZM8 3C8.13261 3 8.25979 2.94732 8.35355 2.85355C8.44732 2.75979 8.5 2.63261 8.5 2.5V0.5C8.5 0.367392 8.44732 0.240215 8.35355 0.146447C8.25979 0.0526784 8.13261 0 8 0C7.86739 0 7.74021 0.0526784 7.64645 0.146447C7.55268 0.240215 7.5 0.367392 7.5 0.5V2.5C7.5 2.63261 7.55268 2.75979 7.64645 2.85355C7.74021 2.94732 7.86739 3 8 3ZM14 6.5V7C13.9997 7.63576 13.7571 8.2475 13.3217 8.71077C12.8863 9.17403 12.2908 9.45401 11.6562 9.49375C11.3119 10.457 10.7317 11.3186 9.96875 12H11.5C11.6326 12 11.7598 12.0527 11.8536 12.1464C11.9473 12.2402 12 12.3674 12 12.5C12 12.6326 11.9473 12.7598 11.8536 12.8536C11.7598 12.9473 11.6326 13 11.5 13H0.5C0.367392 13 0.240215 12.9473 0.146447 12.8536C0.0526784 12.7598 0 12.6326 0 12.5C0 12.3674 0.0526784 12.2402 0.146447 12.1464C0.240215 12.0527 0.367392 12 0.5 12H2.03125C1.39408 11.4359 0.883632 10.7432 0.53352 9.96762C0.183409 9.19199 0.0015779 8.35099 0 7.5V4.5C0 4.36739 0.0526784 4.24021 0.146447 4.14645C0.240215 4.05268 0.367392 4 0.5 4H11.5C12.163 4 12.7989 4.26339 13.2678 4.73223C13.7366 5.20107 14 5.83696 14 6.5ZM13 6.5C12.9996 6.1901 12.9033 5.88792 12.7243 5.63499C12.5452 5.38206 12.2922 5.1908 12 5.0875V7.5C12.0004 7.81401 11.9753 8.12754 11.925 8.4375C12.2352 8.34585 12.5075 8.15636 12.7013 7.8973C12.895 7.63824 12.9998 7.32349 13 7V6.5Z" fill="#FAFAFA"/>
</svg>
