<svg width="14" height="13" viewBox="0 0 14 13" fill="none" xmlns="http://www.w3.org/2000/svg">
<path d="M13.4938 3.0875L12.7313 7.26875C12.6683 7.61415 12.4863 7.92655 12.2168 8.15153C11.9472 8.37652 11.6073 8.49983 11.2563 8.5H4.00625L4.28125 10H11C11.2967 10 11.5867 10.088 11.8334 10.2528C12.08 10.4176 12.2723 10.6519 12.3858 10.926C12.4994 11.2001 12.5291 11.5017 12.4712 11.7926C12.4133 12.0836 12.2704 12.3509 12.0607 12.5607C11.8509 12.7704 11.5836 12.9133 11.2926 12.9712C11.0017 13.0291 10.7001 12.9994 10.426 12.8858C10.1519 12.7723 9.91762 12.58 9.7528 12.3334C9.58797 12.0867 9.5 11.7967 9.5 11.5C9.50006 11.3295 9.52966 11.1604 9.5875 11H5.9125C5.97034 11.1604 5.99995 11.3295 6 11.5C6.00045 11.742 5.94234 11.9805 5.83062 12.1952C5.7189 12.4099 5.55689 12.5944 5.35843 12.7329C5.15996 12.8714 4.93093 12.9598 4.69088 12.9906C4.45084 13.0214 4.2069 12.9937 3.9799 12.9097C3.7529 12.8258 3.54957 12.6882 3.38728 12.5087C3.22498 12.3292 3.10854 12.113 3.04788 11.8787C2.98722 11.6445 2.98416 11.399 3.03894 11.1632C3.09373 10.9275 3.20474 10.7085 3.3625 10.525L1.63125 1H0.5C0.367392 1 0.240215 0.947322 0.146447 0.853553C0.0526784 0.759785 0 0.632608 0 0.5C0 0.367392 0.0526784 0.240215 0.146447 0.146447C0.240215 0.0526784 0.367392 0 0.5 0H1.63125C1.86465 0.000510561 2.09052 0.082646 2.26973 0.232177C2.44894 0.381709 2.5702 0.589216 2.6125 0.81875L2.91875 2.5H13C13.073 2.50015 13.145 2.51649 13.211 2.54783C13.2769 2.57917 13.3351 2.62474 13.3813 2.68125C13.4296 2.73599 13.4649 2.80102 13.4843 2.8714C13.5038 2.94179 13.5071 3.01569 13.4938 3.0875Z" fill="#FAFAFA"/>
</svg>
