<svg width="19" height="18" viewBox="0 0 19 18" fill="none" xmlns="http://www.w3.org/2000/svg">
<path d="M18.5539 4.24531L17.5055 9.99453C17.419 10.4695 17.1686 10.899 16.798 11.2084C16.4274 11.5177 15.9601 11.6873 15.4773 11.6875H5.50859L5.88672 13.75H15.125C15.5329 13.75 15.9317 13.871 16.2709 14.0976C16.61 14.3242 16.8744 14.6463 17.0305 15.0232C17.1866 15.4001 17.2275 15.8148 17.1479 16.2149C17.0683 16.615 16.8719 16.9825 16.5834 17.2709C16.295 17.5594 15.9275 17.7558 15.5274 17.8354C15.1273 17.9149 14.7126 17.8741 14.3357 17.718C13.9588 17.5619 13.6367 17.2975 13.4101 16.9584C13.1835 16.6192 13.0625 16.2204 13.0625 15.8125C13.0626 15.5781 13.1033 15.3455 13.1828 15.125H8.12969C8.20922 15.3455 8.24993 15.5781 8.25 15.8125C8.25062 16.1453 8.17071 16.4732 8.0171 16.7684C7.86349 17.0636 7.64073 17.3173 7.36784 17.5077C7.09495 17.6982 6.78003 17.8197 6.44996 17.8621C6.1199 17.9044 5.78449 17.8663 5.47236 17.7509C5.16024 17.6355 4.88066 17.4463 4.65751 17.1995C4.43435 16.9526 4.27424 16.6554 4.19083 16.3333C4.10743 16.0111 4.10321 15.6736 4.17855 15.3494C4.25388 15.0253 4.40652 14.7242 4.62344 14.4719L2.24297 1.375H0.6875C0.505164 1.375 0.330295 1.30257 0.201364 1.17364C0.0724328 1.0447 0 0.869836 0 0.6875C0 0.505164 0.0724328 0.330295 0.201364 0.201364C0.330295 0.0724328 0.505164 0 0.6875 0H2.24297C2.56389 0.000702022 2.87446 0.113638 3.12088 0.319244C3.36729 0.524849 3.53402 0.810171 3.59219 1.12578L4.01328 3.4375H17.875C17.9754 3.43771 18.0744 3.46017 18.1651 3.50326C18.2557 3.54636 18.3357 3.60901 18.3992 3.68672C18.4657 3.76199 18.5142 3.8514 18.541 3.94818C18.5678 4.04496 18.5722 4.14657 18.5539 4.24531Z" fill="#C47F17"/>
</svg>
